<?xml version="1.0" standalone="no"?>
<!DOCTYPE svg PUBLIC "-//W3C//DTD SVG 20010904//EN"
 "http://www.w3.org/TR/2001/REC-SVG-20010904/DTD/svg10.dtd">
<svg version="1.0" xmlns="http://www.w3.org/2000/svg"
 width="360.000000pt" height="360.000000pt" viewBox="0 0 360.000000 360.000000"
 preserveAspectRatio="xMidYMid meet">
<metadata>
Created by potrace 1.14, written by Peter Selinger 2001-2017
</metadata>
<g transform="translate(0.000000,360.000000) scale(0.100000,-0.100000)"
fill="#000000" stroke="none">
<path d="M1370 2860 c-12 -12 -20 -33 -20 -55 0 -70 77 -102 119 -49 42 53 14
124 -49 124 -17 0 -39 -9 -50 -20z m48 -27 c-2 -10 -10 -18 -18 -18 -8 0 -16
8 -18 18 -2 12 3 17 18 17 15 0 20 -5 18 -17z"/>
<path d="M872 2790 c-51 -21 -55 -132 -8 -194 27 -37 90 -62 124 -52 28 9 52
60 52 111 0 63 -28 108 -80 129 -45 18 -55 19 -88 6z m116 -58 c3 -16 -2 -22
-17 -22 -26 0 -36 17 -20 36 16 19 33 13 37 -14z"/>
<path d="M1610 2688 c-178 -109 -273 -178 -245 -178 2 0 60 37 127 83 68 46
132 88 143 94 11 7 18 14 15 17 -3 3 -21 -5 -40 -16z"/>
<path d="M1215 2623 c-27 -4 -44 -18 -45 -35 0 -4 12 -8 26 -10 25 -3 32 -11
54 -58 4 -8 20 -15 36 -15 37 0 59 41 50 91 -7 33 -9 34 -49 33 -23 -1 -55 -4
-72 -6z"/>
<path d="M1600 2594 c-72 -19 -180 -70 -180 -84 0 -7 19 -1 43 14 24 14 76 36
116 49 39 14 75 27 78 31 8 7 10 8 -57 -10z"/>
<path d="M1532 2500 c-29 -4 -56 -11 -60 -15 -8 -8 100 4 138 16 l25 7 -25 0
c-14 0 -49 -4 -78 -8z"/>
<path d="M846 2479 c-146 -13 -396 -63 -396 -79 0 -3 32 2 70 11 135 35 281
51 460 52 96 0 194 -3 218 -7 33 -6 42 -5 42 7 0 26 -190 34 -394 16z"/>
<path d="M1261 2443 c-10 -21 -31 -49 -45 -62 -44 -41 -32 -107 24 -136 39
-20 73 -19 94 4 19 21 46 101 46 136 0 27 -60 95 -83 95 -9 0 -25 -17 -36 -37z"/>
<path d="M955 2413 c-53 -6 -180 -35 -195 -44 -23 -13 -1 -10 60 7 31 8 119
18 203 21 81 3 147 10 147 14 0 9 -153 10 -215 2z"/>
<path d="M968 2360 c-59 -10 -204 -57 -238 -77 -15 -9 -17 -12 -5 -7 11 3 52
17 90 31 39 13 117 32 175 43 59 10 87 18 65 18 -22 0 -61 -4 -87 -8z"/>
<path d="M1496 2304 c-25 -24 -20 -92 10 -153 67 -134 236 -238 465 -286 41
-9 157 -23 259 -31 258 -21 431 -66 489 -128 l21 -22 -34 -12 c-46 -17 -51
-36 -18 -67 15 -14 30 -25 34 -25 14 0 58 -88 58 -117 0 -55 77 -103 167 -103
76 0 86 8 85 64 -1 46 -1 46 33 46 29 0 37 5 51 32 44 86 21 237 -54 353 -58
90 -188 206 -291 259 -235 121 -464 164 -906 172 -189 3 -259 8 -288 19 -47
19 -62 19 -81 -1z"/>
<path d="M1733 1603 c13 -62 20 -149 24 -295 5 -174 8 -208 20 -208 34 0 -19
540 -56 583 -4 4 1 -32 12 -80z"/>
<path d="M1211 1570 c-1 -87 15 -156 58 -253 17 -37 37 -90 46 -118 l15 -52
-41 7 c-132 21 -276 163 -404 396 l-47 85 6 -45 c8 -70 51 -189 123 -344 97
-210 110 -243 127 -331 19 -97 36 -281 36 -387 0 -44 4 -78 10 -78 15 0 89 99
122 164 16 33 41 103 55 155 22 83 26 118 27 261 1 159 0 168 -28 240 -62 161
-86 240 -95 306 l-8 69 -2 -75z"/>
<path d="M2630 1551 c0 -27 48 -81 71 -81 29 0 24 37 -10 71 -34 33 -61 38
-61 10z"/>
<path d="M2421 1455 c-1 -78 22 -183 54 -248 29 -60 28 -47 -9 78 -15 50 -31
122 -35 160 l-8 70 -2 -60z"/>
<path d="M3026 341 c-14 -16 -36 -72 -36 -93 0 -5 7 -8 15 -8 10 0 15 10 15
30 0 17 7 44 15 60 18 35 15 38 -9 11z"/>
<path d="M1002 320 c-12 -12 -22 -22 -22 -23 0 -1 -4 -17 -9 -35 -8 -25 -7
-32 5 -32 8 0 14 10 14 24 0 14 12 38 26 55 29 35 19 42 -14 11z"/>
</g>
</svg>
